<svg width="70" height="70" viewBox="0 0 70 70" fill="none" xmlns="http://www.w3.org/2000/svg">
<path d="M38.8036 47.7687H13.2216C10.0163 47.7658 7.41815 45.1774 7.41533 41.9835V8.41117C7.41533 8.142 7.43465 7.87282 7.47237 7.60693C4.60788 8.01093 2.47742 10.4518 2.47412 13.3343V46.9076C2.47742 50.1011 5.07508 52.6885 8.27948 52.6923H40.3117L38.8036 47.7687Z" fill="#D4E1F4"/>
<path d="M55.563 13.3764V33.6365C54.8652 33.5162 54.1595 33.4481 53.4514 33.4321V20.6409H4.28402V46.2304C4.28732 48.9678 6.51395 51.1855 9.26105 51.1898H38.7192C38.8729 51.9057 39.0818 52.6089 39.3439 53.2934H9.26105C5.34807 53.2882 2.17761 50.129 2.17242 46.2304V13.3764C2.17714 9.47686 5.34807 6.31769 9.26105 6.31299H48.4743C52.3873 6.31722 55.5587 9.47686 55.563 13.3764ZM53.4514 18.5368V13.3764C53.4485 10.6391 51.2219 8.41989 48.4743 8.41707H9.26105C6.51395 8.42036 4.28732 10.6391 4.28402 13.3764V18.5368H53.4514Z" fill="#0635C9"/>
<path d="M55.5629 33.6363C54.8651 33.516 54.1594 33.4479 53.4513 33.4319C53.3325 33.4282 53.2113 33.4272 53.0906 33.4272C52.5074 33.4272 52.035 33.898 52.035 34.4791C52.035 35.0602 52.5074 35.5313 53.0906 35.5313C53.5248 35.5313 53.9533 35.5534 54.3772 35.5957C60.6318 36.2379 65.4533 41.3785 65.6734 47.64C65.8941 53.9015 61.4465 59.3663 55.2526 60.4444C49.0588 61.5221 43.0158 57.8837 41.0928 51.9182C40.9637 51.5165 40.8552 51.1092 40.7689 50.6963H42.6792C43.0649 50.6959 43.4194 50.4868 43.6052 50.15C43.79 49.8136 43.7763 49.4031 43.5698 49.0789L40.5186 44.3066C40.3244 44.0026 39.9887 43.8189 39.6276 43.8189C39.2669 43.8189 38.9313 44.0026 38.7375 44.3066L35.6863 49.0789C35.4789 49.4031 35.4661 49.8141 35.6514 50.1509C35.8372 50.4873 36.1917 50.6963 36.5778 50.6963H38.6215C38.6512 50.8612 38.6828 51.027 38.7191 51.1896C38.8728 51.9055 39.0816 52.6087 39.3438 53.2932C41.8754 59.9254 48.8118 63.7967 55.8104 62.4846C62.808 61.1721 67.8576 55.0529 67.7968 47.9571C67.736 40.8618 62.5822 34.829 55.5629 33.6363ZM38.5018 48.5922L39.629 46.8297L40.7553 48.5922H38.5018Z" fill="#1AE5BE"/>
<path d="M52.3745 40.6035C51.7908 40.6035 51.3184 41.0742 51.3184 41.6553V49.1533C51.3184 49.7339 51.7908 50.2051 52.3745 50.2051H58.1072C58.6899 50.2051 59.1628 49.7339 59.1628 49.1533C59.1628 48.5722 58.6899 48.101 58.1072 48.101H53.43V41.6553C53.4295 41.0747 52.9572 40.604 52.3745 40.6035Z" fill="#1AE5BE"/>
<path d="M25.8327 10.6133H25.8242C24.1944 10.61 22.8711 11.9244 22.8687 13.5484C22.8659 15.1728 24.185 16.491 25.8152 16.4934H25.8242C27.4493 16.4919 28.7679 15.1822 28.7754 13.563C28.7797 11.9394 27.4629 10.6189 25.8327 10.6133ZM25.8242 14.3897H25.8223C25.3594 14.3883 24.9841 14.0125 24.9855 13.5507C24.9874 13.0904 25.3622 12.7178 25.8242 12.7169H25.827C26.2905 12.7178 26.6657 13.0927 26.6648 13.555C26.6643 14.0167 26.2876 14.3902 25.8242 14.3897Z" fill="#1AE5BE"/>
<path d="M17.3208 10.5874H17.3114C15.6821 10.5851 14.3587 11.8995 14.3564 13.523C14.354 15.147 15.6731 16.4651 17.3029 16.4675H17.3114C18.9369 16.4651 20.256 15.1554 20.2631 13.5361V13.5267C20.2612 11.907 18.9464 10.5935 17.3208 10.5874ZM17.3114 14.3639H17.3086C16.8451 14.3629 16.4703 13.988 16.4708 13.5258C16.4713 13.064 16.848 12.6905 17.3114 12.691H17.3147C17.7781 12.6924 18.1529 13.0682 18.1515 13.5296C18.1492 13.9904 17.7739 14.3629 17.3114 14.3639Z" fill="#1AE5BE"/>
<path d="M8.80844 10.5601H8.79948C7.1697 10.5577 5.84683 11.8721 5.844 13.4961C5.84164 15.1196 7.16074 16.4382 8.79005 16.4406H8.79948C10.4245 16.4387 11.7422 15.129 11.7493 13.5102V13.4994C11.7484 11.8806 10.434 10.5666 8.80844 10.5601ZM8.79948 14.3365H8.79665C8.33322 14.336 7.95795 13.9607 7.95842 13.4989C7.95937 13.0367 8.33605 12.6627 8.79948 12.6641H8.80278C9.26621 12.6646 9.64101 13.04 9.64054 13.5017C9.63912 13.964 9.26291 14.3379 8.79948 14.3365Z" fill="#1AE5BE"/>
</svg>
