<svg width="70" height="70" viewBox="0 0 70 70" fill="none" xmlns="http://www.w3.org/2000/svg">
<g clip-path="url(#clip0_374_33045)">
<path d="M30.8499 43.0534C30.4669 43.0541 30.1022 42.886 29.8537 42.5943L22.9349 34.4922C22.4649 33.9419 22.53 33.1152 23.0803 32.6452C23.6307 32.176 24.4574 32.241 24.9274 32.7907L31.0151 39.92L46.1354 27.6188C46.6967 27.1619 47.5219 27.2467 47.978 27.8081C48.4348 28.3694 48.3501 29.1946 47.7887 29.6507L31.6751 42.7595C31.4427 42.9496 31.151 43.0534 30.8499 43.0534Z" fill="#1AE5BE"/>
<path d="M30.4179 68.3437L33.9687 69.891C34.3005 70.0357 34.6784 70.0364 35.011 69.8924L39.012 68.1646C53.06 62.2647 62.1993 48.5148 62.2008 33.2783V15.3294C62.2008 14.8455 61.934 14.4004 61.5071 14.1731L35.1981 0.154245C34.8078 -0.0540638 34.34 -0.0511404 33.9526 0.161554L8.37153 14.1804C7.95199 14.4106 7.69179 14.8506 7.69179 15.3294V33.6416C7.70714 48.6946 16.6257 62.3129 30.4179 68.3437ZM10.3114 16.1049L34.5907 2.79794L59.5812 16.1144V33.2783C59.5783 47.4645 51.0668 60.2649 37.9865 65.7548L37.977 65.7592L34.4935 67.2634L31.4661 65.9426C18.6276 60.3292 10.3253 47.6538 10.3106 33.6416L10.3114 16.1049Z" fill="#0635C9"/>
<path d="M43.5999 58.2694L43.5911 58.273L40.1069 59.778L37.0794 58.458C24.241 52.8446 15.9386 40.1692 15.924 26.1569V13.0283L10.3106 16.1047V33.6414C10.3253 47.6537 18.6276 60.3291 31.4661 65.9425L34.4928 67.2625L37.977 65.7575L37.9858 65.7539C45.2364 62.7009 51.2613 57.317 55.1066 50.4545C51.8248 53.7933 47.9137 56.4494 43.5999 58.2694Z" fill="#D4E1F4"/>
</g>
<defs>
<clipPath id="clip0_374_33045">
<rect width="70" height="70" fill="white"/>
</clipPath>
</defs>
</svg>
