<svg width="295" height="18" viewBox="0 0 295 18" fill="none" xmlns="http://www.w3.org/2000/svg">
<path fill-rule="evenodd" clip-rule="evenodd" d="M188.82 0.431021C196.61 -0.00754845 205.766 0.404839 214.071 0.0120894V0.33938C214.739 0.355745 214.622 0.0120894 215.253 0.0120894C216.112 -0.0926437 215.363 0.522663 216.435 0.33938C216.766 0.303378 216.435 0.152825 216.193 0.129914C216.546 0.100618 216.91 0.115723 217.244 0.173535C217.579 0.231347 217.871 0.329577 218.087 0.457205C218.88 0.414657 217.456 0.0480916 218.557 0.129914C222.353 0.476843 226.788 -0.285746 231.039 0.548846C238.242 0.421203 246.422 0.548847 254.646 0.761586C256.422 0.804134 258.008 0.954688 259.367 0.866319C260.593 0.784496 262.899 0.941596 264.323 0.971052C265.902 1.00051 267.59 1.31798 268.802 1.29834C268.068 1.31798 272.135 0.872864 271.636 1.40308C274.661 1.01687 278.435 1.60927 281.549 1.51108C282.055 1.45872 282.004 1.65836 282.026 1.83837C282.701 1.41944 284.096 1.91692 284.618 1.51108C284.889 2.16566 286.204 1.27216 286.74 1.93001C288.032 1.40962 289.757 2.02166 291.461 2.13948C292.665 2.22458 294.706 1.9071 295 2.66642C293.7 2.68933 291.901 3.08862 287.922 2.66642C288.568 2.92171 285.91 3.01007 285.8 2.56169C284.801 3.25227 281.879 2.43404 281.079 3.19336C280.286 3.09844 281.079 2.95771 280.609 2.77115C277.54 3.09844 275.557 2.59114 272.583 2.66642C274.301 3.37991 276.504 3.50756 278.957 3.40282C279.75 3.40282 278.957 3.64502 279.691 3.82503C280.528 3.71702 280.124 3.64175 280.425 3.40282C283.854 3.97886 289.97 3.69084 293.642 4.34869C290.705 4.28978 286.652 4.70871 284.207 4.13923C279.018 4.33856 273.798 4.30347 268.626 4.03449C268.295 4.01486 267.524 4.12614 268.156 3.82503C267.187 4.11305 266.071 3.96249 264.617 3.92976C241.466 3.40937 214.688 3.89703 192.866 4.34869C168.43 4.856 145.462 5.69059 121.115 7.08485C83.2347 9.2286 48.0127 13.3623 14.1637 17.0541C11.0872 17.3814 8.10613 17.8494 4.95619 18C4.72807 17.9841 4.51255 17.9429 4.32938 17.8802C4.14621 17.8175 4.00123 17.7354 3.90772 17.6413C3.81421 17.5472 3.77516 17.4441 3.79414 17.3415C3.81311 17.239 3.88952 17.1401 4.01635 17.0541C2.77547 16.9919 2.22478 17.2407 0.947184 17.1589C0.52392 16.8672 0.204414 16.5482 0 16.213C0.987703 15.6759 2.29607 15.2742 3.77405 15.0544C4.22194 14.8547 3.77405 14.7893 3.77405 14.5274C11.8508 12.6684 21.2199 11.0451 31.1543 10.3218C47.3445 9.14351 63.8872 7.11103 79.7764 5.90333C83.6018 5.61204 86.9867 5.57604 91.1059 5.37639C96.2456 5.15056 102.78 4.4567 109.044 4.43052C112.92 4.41088 117.421 3.82503 122.025 3.58938C143.979 2.45368 169.377 1.21979 191.177 0.748494C190.7 0.0219082 189.525 0.702673 188.82 0.431021ZM272.135 2.5355H270.953C270.733 2.95771 272.363 2.95771 272.135 2.5355Z" fill="#F78248"/>
</svg>
